<?xml version="1.0" encoding="UTF-8"?>
<!DOCTYPE svg PUBLIC "-//W3C//DTD SVG 1.1//EN" "http://www.w3.org/Graphics/SVG/1.1/DTD/svg11.dtd">
<!-- Creator: CorelDRAW X7 -->
<svg xmlns="http://www.w3.org/2000/svg" xml:space="preserve" width="30.000000pt" height="30.000000pt" version="1.1" style="shape-rendering:geometricPrecision; text-rendering:geometricPrecision; image-rendering:optimizeQuality; fill-rule:evenodd; clip-rule:evenodd"
viewBox="0 0 4154 4040"
 xmlns:xlink="http://www.w3.org/1999/xlink">
 <defs>
  <style type="text/css">
   <![CDATA[
    .fil0 {fill:#FEFEFE}
   ]]>
  </style>
 </defs>
 <g id="Capa_x0020_1">
  <metadata id="CorelCorpID_0Corel-Layer"/>
  <path class="fil0" d="M1474 1558l-117 235 464 932 -345 689c-68,136 -207,236 -379,236l243 0c172,0 311,-100 379,-236l340 -679 -585 -1177z"/>
  <path class="fil0" d="M809 690c-488,329 -809,886 -809,1519 0,409 134,786 360,1091l876 -1751 121 244 117 -234 -570 -1150c-29,-58 -64,-128 -140,-175 -43,-24 -97,-36 -172,-36l-287 0c255,-5 322,128 371,226l133 266zm-108 2960c311,244 703,390 1130,390 426,0 805,-136 1116,-380 -87,0 -184,8 -268,-12 -135,-31 -229,-122 -291,-243l-331 -667 -338 676c-68,136 -207,236 -379,236l-639 0z"/>
  <path class="fil0" d="M2464 491c109,-263 279,-492 799,-457 162,11 316,22 463,-34 -18,113 -46,213 -84,301 -444,-168 -788,-71 -1049,244 37,17 73,35 109,54 176,-208 412,-351 884,-185 159,55 311,109 473,94 -176,388 -441,569 -773,591 235,308 375,693 375,1110 0,231 -43,452 -120,655l296 593c67,134 188,182 317,193l-313 0c-101,-22 -192,-74 -247,-184l-1487 -2997c-58,-117 -144,-230 -288,-271l121 0c203,0 318,118 391,250 45,13 89,27 133,43z"/>
 </g>
</svg>
